<?xml version="1.0" ?>
<!-- Uploaded to: SVG Repo, www.svgrepo.com, Generator: SVG Repo Mixer Tools -->
<svg width="800px" height="800px" viewBox="0 0 20 20" version="1.1" xmlns="http://www.w3.org/2000/svg">
<g id="layer1">
<path d="M 9.4921875 -0.0078125 A 0.50005 0.50005 0 0 0 9 0.5 L 9 16 A 0.50005 0.50005 0 1 0 10 16 L 10 6.4746094 C 10.232732 6.4602677 10.382753 6.4477755 10.853516 6.4335938 C 11.57962 6.4117188 12.454965 6.4186886 12.919922 6.4941406 C 13.865865 6.6476461 14.74386 7.303292 15.919922 7.4941406 C 16.582846 7.6017185 17.346092 7.4501776 17.994141 7.2988281 C 18.642189 7.1474784 19.158203 6.9746094 19.158203 6.9746094 A 0.50005 0.50005 0 0 0 19.5 6.5 L 19.5 1.5 A 0.50005 0.50005 0 0 0 18.841797 1.0253906 C 18.841797 1.0253906 18.36413 1.1844398 17.765625 1.3242188 C 17.16712 1.4639977 16.430938 1.5627961 16.080078 1.5058594 C 15.228572 1.3676788 14.326219 0.70808014 13.080078 0.50585938 C 12.448993 0.40344832 11.574104 0.41100268 10.824219 0.43359375 C 10.37021 0.44727127 10.247544 0.45924125 10 0.47460938 A 0.50005 0.50005 0 0 0 9.4921875 -0.0078125 z M 11.984375 1.4277344 C 12.352094 1.436174 12.687443 1.4564146 12.919922 1.4941406 C 13.865865 1.6476461 14.74386 2.303292 15.919922 2.4941406 C 16.582846 2.6017185 17.346092 2.4501776 17.994141 2.2988281 C 18.275721 2.2330661 18.299625 2.2161881 18.5 2.1582031 L 18.5 6.1210938 C 18.317842 6.1778118 18.173928 6.2288607 17.765625 6.3242188 C 17.16712 6.4639976 16.430938 6.5627961 16.080078 6.5058594 C 15.228572 6.3676788 14.326219 5.7080801 13.080078 5.5058594 C 12.448993 5.4034483 11.574104 5.4110028 10.824219 5.4335938 C 10.37021 5.4472712 10.247544 5.4592413 10 5.4746094 L 10 1.4746094 C 10.232732 1.4602677 10.382753 1.4477755 10.853516 1.4335938 C 11.216568 1.4226562 11.616656 1.4192947 11.984375 1.4277344 z M 8 12.058594 C 6.0643535 12.181754 4.3181154 12.528523 2.9550781 13.058594 C 2.1007034 13.390851 1.3913752 13.78937 0.86914062 14.269531 C 0.34690601 14.749693 0 15.343038 0 16 C 0 16.656962 0.34690601 17.250307 0.86914062 17.730469 C 1.3913752 18.21063 2.1007034 18.609149 2.9550781 18.941406 C 4.6638275 19.60592 6.9621758 20 9.5 20 C 12.037824 20 14.336172 19.60592 16.044922 18.941406 C 16.899297 18.609149 17.608625 18.21063 18.130859 17.730469 C 18.653094 17.250307 19 16.656962 19 16 C 19 15.343038 18.653094 14.749693 18.130859 14.269531 C 17.608625 13.78937 16.899297 13.390851 16.044922 13.058594 C 14.681884 12.528523 12.935646 12.181754 11 12.058594 L 11 13.058594 C 12.827211 13.181763 14.462076 13.5152 15.683594 13.990234 C 16.457899 14.291353 17.066463 14.648553 17.455078 15.005859 C 17.843693 15.363166 18 15.690464 18 16 C 18 16.309536 17.843693 16.636834 17.455078 16.994141 C 17.066463 17.351447 16.457899 17.708647 15.683594 18.009766 C 14.134984 18.612003 11.932739 19 9.5 19 C 7.0672614 19 4.8650163 18.612003 3.3164062 18.009766 C 2.5421015 17.708647 1.9335368 17.351447 1.5449219 16.994141 C 1.1563069 16.636834 1 16.309536 1 16 C 1 15.690464 1.1563069 15.363166 1.5449219 15.005859 C 1.9335368 14.648553 2.5421013 14.291353 3.3164062 13.990234 C 4.5379242 13.5152 6.1727887 13.181763 8 13.058594 L 8 12.058594 z " style="fill:#222222; fill-opacity:1; stroke:none; stroke-width:0px;"/>
</g>
</svg>