<?xml version="1.0" encoding="UTF-8" standalone="no"?>
<!-- Uploaded to: SVG Repo, www.svgrepo.com, Generator: SVG Repo Mixer Tools -->

<svg
   height="800px"
   width="800px"
   version="1.1"
   id="_x32_"
   viewBox="0 0 512 512"
   xml:space="preserve"
   sodipodi:docname="monthly-calendar.svg"
   inkscape:version="1.4.3 (fcd0343856, 2026-01-01)"
   inkscape:export-filename="monthly-calendar.png"
   inkscape:export-xdpi="96"
   inkscape:export-ydpi="96"
   xmlns:inkscape="http://www.inkscape.org/namespaces/inkscape"
   xmlns:sodipodi="http://sodipodi.sourceforge.net/DTD/sodipodi-0.dtd"
   xmlns="http://www.w3.org/2000/svg"
   xmlns:svg="http://www.w3.org/2000/svg"><defs
   id="defs2"><inkscape:path-effect
     effect="fillet_chamfer"
     id="path-effect2"
     is_visible="true"
     lpeversion="1"
     nodesatellites_param="F,0,0,1,0,0,0,1 @ F,0,0,1,0,0,0,1 @ F,0,0,1,0,0,0,1 @ F,0,0,1,0,0,0,1 @ F,0,0,1,0,0,0,1 @ F,0,0,1,0,0,0,1 @ F,0,0,1,0,0,0,1 @ F,0,0,1,0,0,0,1 @ F,0,0,1,0,0,0,1 @ F,0,0,1,0,0,0,1 @ F,0,0,1,0,0,0,1 @ F,0,0,1,0,0,0,1 @ F,0,0,1,0,0,0,1 @ F,0,0,1,0,0,0,1 | F,0,0,1,0,0,0,1 @ F,0,0,1,0,0,0,1 @ F,0,0,1,0,0,0,1 @ F,0,0,1,0,0,0,1 @ F,0,0,1,0,0,0,1 @ F,0,0,1,0,0,0,1 @ F,0,0,1,0,0,0,1 @ F,0,0,1,0,0,0,1 @ F,0,0,1,0,0,0,1 @ F,0,0,1,0,0,0,1 @ F,0,0,1,0,0,0,1 @ F,0,0,1,0,0,0,1 @ F,0,0,1,0,0,0,1 @ F,0,0,1,0,0,0,1 | F,0,0,1,0,0,0,1 @ F,0,0,1,0,0,0,1 @ F,0,0,1,0,0,0,1 @ F,0,0,1,0,0,0,1 @ F,0,0,1,0,0,0,1 @ F,0,0,1,0,0,0,1 @ F,0,0,1,0,0,0,1 @ F,0,0,1,0,0,0,1 @ F,0,0,1,0,0,0,1 @ F,0,0,1,0,0,0,1 @ F,0,0,1,0,0,0,1 @ F,0,0,1,0,0,0,1 @ F,0,0,1,0,0,0,1 @ F,0,0,1,0,0,0,1 @ F,0,0,1,0,0,0,1 @ F,0,0,1,0,0,0,1 @ F,0,0,1,0,0,0,1 @ F,0,0,1,0,0,0,1 @ F,0,0,1,0,0,0,1 @ F,0,0,1,0,0,0,1 @ F,0,0,1,0,0,0,1 @ F,0,0,1,0,0,0,1 @ F,0,0,1,0,0,0,1 | F,0,0,1,0,0,0,1 @ F,0,0,1,0,0,0,1 @ F,0,0,1,0,0,0,1 @ F,0,0,1,0,0,0,1 @ F,0,0,1,0,0,0,1 @ F,0,0,1,0,0,0,1 @ F,0,0,1,0,0,0,1 @ F,0,0,1,0,0,0,1 @ F,0,0,1,0,0,0,1 @ F,0,0,1,0,0,0,1 @ F,0,0,1,0,0,0,1 @ F,0,0,1,0,0,0,1 @ F,0,0,1,0,0,0,1 @ F,0,0,1,0,0,0,1 @ F,0,0,1,0,0,0,1 @ F,0,0,1,0,0,0,1 @ F,0,0,1,0,0,0,1 @ F,0,0,1,0,0,0,1 @ F,0,0,1,0,0,0,1 @ F,0,0,1,0,0,0,1 @ F,0,0,1,0,0,0,1 @ F,0,0,1,0,0,0,1 @ F,0,0,1,0,0,0,1"
     radius="0"
     unit="px"
     method="auto"
     mode="F"
     chamfer_steps="1"
     flexible="false"
     use_knot_distance="true"
     apply_no_radius="true"
     apply_with_radius="true"
     only_selected="false"
     hide_knots="false" /><inkscape:path-effect
     effect="envelope"
     id="path-effect1"
     is_visible="true"
     lpeversion="1"
     yy="true"
     xx="true"
     bendpath1="m 240.71507,131.73473 c 68.45176,29.18294 77.10911,28.61043 149.23389,59.28048"
     bendpath2="m 388.83313,191.17463 c -38.23066,30.18011 -61.59979,40.42158 -113.16473,70.50178"
     bendpath3="m 134.31011,199.86896 138.54844,60.03137"
     bendpath4="m 237.55907,129.1343 c -39.05355,32.64252 -49.79451,45.16054 -103.03486,69.67355"
     bendpath1-nodetypes="cc"
     bendpath2-nodetypes="cc"
     bendpath3-nodetypes="cc"
     bendpath4-nodetypes="cc" /><inkscape:path-effect
     effect="envelope"
     id="path-effect5"
     is_visible="true"
     lpeversion="1"
     yy="true"
     xx="true"
     bendpath1="M 186.59161,158.76062 H 338.46026"
     bendpath2="m 338.46026,158.76062 v 63.17787"
     bendpath3="M 186.59161,221.93849 H 338.46026"
     bendpath4="m 186.59161,158.76062 v 63.17787" /></defs><sodipodi:namedview
   id="namedview2"
   pagecolor="#ffffff"
   bordercolor="#000000"
   borderopacity="0.25"
   inkscape:showpageshadow="2"
   inkscape:pageopacity="0.0"
   inkscape:pagecheckerboard="0"
   inkscape:deskcolor="#d1d1d1"
   inkscape:zoom="1.4195169"
   inkscape:cx="436.06386"
   inkscape:cy="356.10708"
   inkscape:window-width="1498"
   inkscape:window-height="939"
   inkscape:window-x="399"
   inkscape:window-y="76"
   inkscape:window-maximized="0"
   inkscape:current-layer="_x32_" />
<style
   type="text/css"
   id="style1">
	.st0{fill:#000000;}
</style>
<g
   id="g2">
	<path
   class="st0"
   d="M 260.847,51.057 C 210.844,88.23 92.606,195.549 3.954,195.549 c -5.836,0 -3.486,4.232 -3.486,4.232 l 77.458,32.376 -47.118,46.646 v 77.175 L 281.961,460.942 512,233.189 V 156.021 Z M 68.485,204.425 c 26.6,-9.94 53.389,-24.653 79.054,-41.188 6.421,-4.135 12.738,-8.416 18.994,-12.73 1.375,-0.951 2.741,-1.886 4.103,-2.846 6.063,-4.232 12.036,-8.506 17.889,-12.802 0.681,-0.499 1.335,-0.991 2.016,-1.491 5.68,-4.192 11.234,-8.377 16.676,-12.528 0.734,-0.565 1.467,-1.113 2.193,-1.677 6.01,-4.612 11.843,-9.142 17.502,-13.592 l 204.576,85.503 c -53.933,41.067 -123.229,87.479 -176.38,87.479 -3.797,0 -7.498,-0.25 -11.012,-0.75 L 116.764,224.595 94.831,215.437 Z m 31.4,36.89 138.155,57.755 c 5.55,0.976 11.23,1.443 17.067,1.443 55.598,0 122.83,-42.211 177.573,-82.842 L 275.596,373.182 58.384,282.415 Z M 490.04,224.031 276.906,435.033 52.768,341.363 V 323.111 L 278.329,417.369 490.04,207.771 Z m 0,-29.248 -213.831,211.703 -223.44,-93.372 v -19.445 l 225.71,94.323 211.561,-209.446 z"
   id="path1"
   style="display:inline"
   sodipodi:nodetypes="csccccccccccccccccccsccccccscccccccccccccccccc" />
	
</g>
<path
   d="m 252.70152,191.75635 c -8.94093,5.7355 -18.02435,10.3309 -26.99588,13.97063 -2.75869,1.1162 -5.50227,2.14227 -8.2212,3.08166 -11.432,3.94974 -21.83511,6.16151 -30.89994,6.79708 -3.86387,0.2601 -7.44378,0.23335 -10.74389,-0.0825 -4.46738,-0.4275 -8.44609,-1.38724 -11.93786,-2.89955 -9.35881,-4.05336 -11.68654,-10.27132 -6.70412,-17.98282 2.53953,-3.87618 6.56995,-7.68817 12.07511,-11.94945 5.35873,-4.14746 12.53037,-9.05917 20.35206,-14.62135 0.045,-0.032 1.51022,-1.07577 1.55522,-1.10777 0,0 0,0 0,0 0.0809,-0.0577 0.89789,-0.64076 0.9788,-0.69848 0,0 0,0 0,0 8.21267,-5.86204 15.20319,-10.83125 23.0214,-15.1201 6.51943,-3.57469 12.88521,-6.22597 19.36149,-8.02194 14.60625,-4.05054 27.68146,-3.10303 37.84926,1.13589 3.81601,1.59088 6.64542,3.409 8.50857,5.4739 3.15089,3.4917 3.55982,7.70952 1.43761,12.84415 -1.44137,3.52395 -4.00681,7.3498 -7.7157,11.41485 -4.40344,4.82691 -10.67811,10.24031 -19.10338,15.91593 0,0 0,0 0,0 -0.35366,0.23779 -0.71125,0.47624 -1.0728,0.71533 0,0 0,0 0,0 -0.57297,0.37773 -1.15452,0.75592 -1.74475,1.13455 z m -13.17969,-5.3027 c 0.58546,-0.38073 1.15943,-0.7601 1.72197,-1.13802 0,0 1e-5,-1e-5 1e-5,-1e-5 0.35711,-0.24066 0.70909,-0.4803 1.05597,-0.71887 0,0 1e-5,-10e-6 1e-5,-10e-6 9.02727,-6.22285 14.73935,-11.87743 17.51689,-16.52777 0.28681,-0.48138 0.54473,-0.95531 0.77386,-1.42174 0.83608,-1.68325 1.26594,-3.21429 1.29113,-4.59641 0.0587,-3.12106 -1.95031,-5.51358 -6.05748,-7.18419 -6.01039,-2.44474 -13.68139,-2.30952 -22.80981,0.82585 -0.81442,0.27806 -1.63335,0.57715 -2.4574,0.89747 -7.93492,3.09562 -15.45138,7.74249 -24.75596,14.12141 0,0 0,0 0,0 -0.34171,0.23397 -0.68501,0.46963 -1.03012,0.70702 0,0 0,0 0,0 -0.54228,0.37235 -1.08876,0.74856 -1.63846,1.12769 -9.03481,6.23133 -15.93132,11.16025 -20.44271,15.53873 -1.19586,1.16258 -2.21328,2.28001 -3.05208,3.36361 -3.88029,5.09965 -3.21347,8.79825 2.18437,11.09512 3.85471,1.64025 8.76002,2.12357 14.72708,1.40598 2.65038,-0.31838 5.52144,-0.87551 8.60363,-1.67978 2.25911,-0.58517 4.59799,-1.29368 7.00834,-2.12922 8.31583,-2.89309 17.65501,-7.37527 27.36076,-13.68686 z m -16.97877,51.46546 c -6.82678,-3.02863 -8.40998,-7.49137 -4.47096,-13.36214 1.90746,-2.81926 4.94546,-5.81392 9.19209,-9.08599 2.35929,-1.82064 5.07201,-3.71204 8.16268,-5.71266 0,0 0,0 0,0 3.07536,-1.99085 6.49115,-4.07691 10.24499,-6.29162 5.92543,-3.49592 11.68512,-6.73192 17.03716,-9.49653 0.42027,-0.21761 0.83831,-0.43228 1.25422,-0.64402 1.10015,-0.55835 2.18533,-1.09609 3.25779,-1.61341 6.00314,-2.89994 11.52664,-5.11988 16.88011,-6.70561 4.32061,-1.28699 8.32314,-2.09077 12.04946,-2.42622 5.93644,-0.52388 11.20856,0.12993 15.739,1.97823 4.367,1.78161 6.79895,4.27365 7.25192,7.49723 0.13297,0.97174 0.0854,2.01117 -0.14697,3.11721 -0.98269,4.67827 -5.14898,10.12118 -12.91162,16.01337 -0.1421,0.10746 -0.28539,0.21512 -0.42989,0.32296 -2.5285,-0.90876 -5.06883,-1.80687 -7.60488,-2.69162 0,0 0,0 0,0 0,0 0,0 0,0 -1.95577,-0.68198 -3.91682,-1.35884 -5.87449,-2.02875 0.15363,-0.10997 0.3052,-0.21954 0.45468,-0.3287 0,0 0,0 0,0 0.34678,-0.25407 0.68183,-0.50549 1.00522,-0.75425 0,0 0,0 0,0 3.22206,-2.48903 5.26935,-4.72994 6.20865,-6.69097 1.12286,-2.27209 0.35022,-3.95445 -2.23545,-5.03505 -4.31188,-1.80202 -11.01409,-0.23351 -20.84006,4.60104 -0.41878,0.20678 -0.8435,0.41949 -1.2744,0.63817 -4.68881,2.37389 -10.09143,5.4218 -16.16531,8.99812 -4.3336,2.55164 -8.04591,4.80088 -11.21585,6.85465 -11.77607,7.62906 -15.16793,12.27413 -10.15668,14.44906 2.267,0.9839 5.52447,1.07606 9.79887,0.25403 4.31453,-0.84895 9.46843,-2.70085 15.38662,-5.60381 3.7416,1.97096 7.36874,3.89074 11.13641,5.88838 -6.61345,3.19244 -13.29532,5.65419 -19.91623,7.41361 -6.60398,1.77505 -12.66214,2.69589 -18.17763,2.78861 -5.46559,0.0635 -9.9887,-0.7237 -13.63945,-2.34332 z m 41.31524,18.09247 c -3.66127,-1.55856 -4.5831,-3.75843 -2.84189,-6.57264 1.80417,-2.85613 6.4687,-6.2795 14.09287,-10.37421 4.21017,-2.26116 8.47738,-4.56536 12.7022,-6.8805 9.30302,-5.102 18.15256,-10.15531 27.16584,-15.69423 0.37446,-0.23062 0.74809,-0.46131 1.12096,-0.69211 3.87246,-2.39763 7.60902,-4.79344 11.31951,-7.23809 -1.97623,-0.9372 -3.96237,-1.8625 -5.95236,-2.77559 3.91493,-2.5883 7.66076,-5.13249 11.43783,-7.72427 0.12777,-0.0875 2.55921,-1.75559 2.68698,-1.84307 2.21934,0.98971 4.43479,1.99341 6.63959,3.01112 0,0 5.61926,-2.77815 11.27727,-5.57717 5.64587,-2.793 11.40959,-5.59382 11.40959,-5.59382 2.6032,1.12719 5.19918,2.26758 7.78782,3.42287 -6.41676,4.38095 -12.68012,8.84903 -18.99751,13.23726 2.9423,1.46198 5.8638,2.96049 8.74973,4.49809 -0.92918,0.64961 -1.85808,1.29581 -2.78958,1.93996 -3.90317,2.69937 -7.76745,5.30368 -11.74008,7.87688 -2.82746,-1.57111 -5.69718,-3.10093 -8.59154,-4.59186 -3.73649,2.44055 -7.48659,4.81104 -11.35002,7.15947 -0.36998,0.22489 -0.74049,0.44952 -1.11157,0.67391 -8.88378,5.36518 -17.67689,10.31182 -26.8404,15.2918 0,0 0,0 0,0 -2.0973,1.13922 -4.20204,2.27469 -6.30394,3.40348 -4.38099,2.35271 -7.17744,4.26542 -8.3905,5.76819 -1.15528,1.47037 -0.78751,2.60017 1.11721,3.39198 0.99848,0.41508 2.80972,0.79905 5.44604,1.15514 -0.91766,0.48602 -13.5783,7.18324 -14.49596,7.66925 -5.0989,-0.28754 -9.61128,-1.26599 -13.54809,-2.94184 z"
   id="text5"
   style="font-weight:bold;font-size:76.8px;font-family:'Liberation Sans';-inkscape-font-specification:'Liberation Sans Bold';text-align:center;text-anchor:middle;stroke:#000000;stroke-width:0.763652"
   aria-label="Oct"
   inkscape:path-effect="#path-effect1"
   inkscape:original-d="m 251.79354,189.92937 c 0,6.39041 -1.33258,12.01106 -3.99775,16.86196 -2.66517,4.8509 -6.47911,8.56895 -11.44184,11.15416 -4.96273,2.55616 -10.75258,3.83424 -17.36955,3.83424 -10.17053,0 -18.15071,-2.83211 -23.94056,-8.49633 -5.75921,-5.69327 -8.63882,-13.47795 -8.63882,-23.35403 0,-9.84703 2.87961,-17.53004 8.63882,-23.04903 5.75921,-5.51899 13.77003,-8.27848 24.03246,-8.27848 10.26243,0 18.27326,2.78854 24.03247,8.36562 5.78985,5.57708 8.68477,13.23104 8.68477,22.96189 z m -13.8313,0 c 0,-6.62278 -1.65424,-11.80772 -4.96273,-15.55483 -3.30849,-3.77615 -7.94956,-5.66422 -13.92321,-5.66422 -6.06555,0 -10.75257,1.87355 -14.06106,5.62065 -3.30848,3.71805 -4.96272,8.91752 -4.96272,15.5984 0,6.73897 1.68488,12.05463 5.05463,15.94697 3.40039,3.86329 8.02614,5.79493 13.87725,5.79493 6.06555,0 10.73726,-1.88807 14.01511,-5.66422 3.30849,-3.77615 4.96273,-9.13537 4.96273,-16.07768 z m 45.0781,31.85036 c -7.53599,0 -13.35648,-2.12045 -17.46145,-6.36135 -4.10497,-4.26995 -6.15745,-10.21013 -6.15745,-17.82052 0,-7.78468 2.0678,-13.84104 6.20341,-18.16909 4.1356,-4.35709 10.00203,-6.53564 17.5993,-6.53564 5.85111,0 10.6913,1.39427 14.52057,4.18281 3.82927,2.78854 6.23404,6.63731 7.21433,11.5463 -4.33473,0.20333 -8.66945,0.40667 -13.00418,0.61 -0.36761,-2.41093 -1.28663,-4.32805 -2.75707,-5.75137 -1.47044,-1.45237 -3.55356,-2.17855 -6.24936,-2.17855 -6.64761,0 -9.97141,5.27209 -9.97141,15.81626 0,10.86369 3.38507,16.29553 10.15521,16.29553 2.45073,0 4.50322,-0.72618 6.15746,-2.17855 1.65425,-1.48141 2.68049,-3.67448 3.07873,-6.57921 4.31941,0.18881 8.63882,0.37761 12.95823,0.56642 -0.45951,3.22425 -1.68488,6.09994 -3.67609,8.62705 -1.96059,2.52711 -4.54917,4.48781 -7.76575,5.88208 -3.21658,1.36522 -6.83141,2.04783 -10.84448,2.04783 z m 44.3429,-0.0871 c -3.79863,0 -6.7242,-0.97308 -8.77669,-2.91925 -2.05249,-1.97522 -3.07873,-4.95257 -3.07873,-8.93205 0,-9.26609 0,-18.53217 0,-27.79826 -2.09844,0 -4.19687,0 -6.29531,0 0,-2.75949 0,-5.51899 0,-8.27848 2.31288,0 4.62575,0 6.93863,0 0,0 4.04372,-11.06702 4.04372,-11.06702 2.6958,0 5.3916,0 8.0874,0 0,3.68901 0,7.37801 0,11.06702 3.14,0 6.27999,0 9.41999,0 0,2.75949 0,5.51899 0,8.27848 -3.14,0 -6.27999,0 -9.41999,0 0,8.16229 0,16.32458 0,24.48687 0,2.29474 0.45951,3.99401 1.37854,5.0978 0.91902,1.07475 2.34351,1.61213 4.27346,1.61213 1.01093,0 2.45073,-0.20333 4.31941,-0.60999 0,2.52711 0,5.05423 0,7.58134 -3.18595,0.98761 -6.81609,1.48141 -10.89043,1.48141 z" /></svg>
