<?xml version="1.0" encoding="iso-8859-1"?>
<!-- Uploaded to: SVG Repo, www.svgrepo.com, Generator: SVG Repo Mixer Tools -->
<!DOCTYPE svg PUBLIC "-//W3C//DTD SVG 1.1//EN" "http://www.w3.org/Graphics/SVG/1.1/DTD/svg11.dtd">
<svg fill="#000000" version="1.1" id="Capa_1" xmlns="http://www.w3.org/2000/svg" xmlns:xlink="http://www.w3.org/1999/xlink" 
	 width="800px" height="800px" viewBox="0 0 957.9 957.9" xml:space="preserve"
	>
<g>
	<g>
		<path d="M79.9,111.6c0,27.6,22.4,50,50,50H651.3c27.601,0,50-22.4,50-50V84c0-27.6-22.399-50-50-50H129.9c-27.6,0-50,22.4-50,50
			V111.6z"/>
		<path d="M0,263.1v27.6c0,27.6,22.4,50,50,50h521.4c27.6,0,50-22.4,50-50v-27.6c0-27.6-22.4-50-50-50H50
			C22.4,213.1,0,235.4,0,263.1z"/>
		<path d="M0,466.4c0,27.6,22.4,50,50,50h353c15.101-32.2,35.601-61.4,60.9-86.7c15.5-15.5,32.399-29.101,50.5-40.8H50
			c-27.6,0-50,22.399-50,50V466.4z"/>
		<path d="M129.9,564.6c-27.6,0-50,22.4-50,50V642.2c0,27.6,22.4,50,50,50H377.3c-2.199-14.9-3.3-30.101-3.3-45.4
			c0-28.1,3.7-55.6,11.101-82.2H129.9L129.9,564.6z"/>
		<path d="M0,821.1c0,27.601,22.4,50,50,50h421.4c-2.5-2.399-5.101-4.8-7.601-7.3c-28.199-28.2-50.3-61-65.8-97.6
			c-3.2-7.5-6-15.101-8.6-22.7H50c-27.6,0-50,22.4-50,50V821.1z"/>
		<path d="M681,369.7c-36.2,0-70.8,7-102.5,19.6c-61,24.3-111.3,69.601-142,127.101c-8.2,15.3-14.899,31.399-20.2,48.199
			c-8.1,26-12.399,53.601-12.399,82.2c0,15.5,1.3,30.601,3.7,45.4c2.899,17.8,7.5,35,13.699,51.399
			C440.5,795.1,474.7,839.4,518.4,871.2c45.6,33.1,101.8,52.7,162.5,52.7c153,0,277-124,277-277S834,369.7,681,369.7z M774.4,779.9
			h-154.8h-37c-9.101,0-17.5-5-21.9-13c-4-7.301-4.1-16.101-0.3-23.4c0.399-0.7,0.7-1.4,1.1-2c10-15.8,18.2-32.5,24.9-49.4
			c3.7-9.399,7-18.899,9.899-28.399h-10.6c-13.8,0-25-11.2-25-25s11.2-25,25-25h22.6c3.301-18.3,5.301-35.2,6.5-49.2
			c2-24.6,1.601-40.7,1.601-41.1c-0.2-6.801,2.3-13.4,7-18.2c4.7-4.9,11.2-7.601,18-7.601h119.3c13.8,0,25,11.2,25,25V562.9
			c0,13.8-11.2,25-25,25s-25-11.2-25-25V547.6h-69.6c-0.2,5.601-0.601,11.9-1.101,18.9c-1.1,13.6-2.8,29.7-5.7,47.3h41.2
			c0.3,0,0.7,0,1,0c13.3,0.5,24,11.5,24,25c0,13.8-11.2,25-25,25h-3.899H648.5c-2.5,9.3-5.399,18.8-8.7,28.4
			c-4.3,12.6-9.3,25.3-15.1,37.8h149.8c13.8,0,25,11.2,25,25S788.2,779.9,774.4,779.9z"/>
	</g>
</g>
</svg>