<?xml version="1.0" encoding="UTF-8"?>
<svg xmlns="http://www.w3.org/2000/svg" xmlns:xlink="http://www.w3.org/1999/xlink" version="1.1" viewBox="0 0 800 800">
  <defs>
    <style>
      .cls-1 {
        fill: #4b2032;
      }

      .cls-2 {
        font-family: HaboroContrast-NorReg, 'Haboro Contrast';
        font-size: 81.9px;
      }

      .cls-2, .cls-3 {
        fill: #1d1d1b;
      }

      .cls-4 {
        stroke: #4b2032;
        stroke-width: 5.1px;
      }

      .cls-4, .cls-5 {
        fill: none;
        stroke-linecap: round;
        stroke-miterlimit: 10;
      }

      .cls-5 {
        stroke: #1d1d1b;
        stroke-width: 5.1px;
      }

      .cls-6 {
        display: none;
      }
    </style>
    <path id="path" d="M396.9,743c-189.5,0-343-153.6-343-343S207.5,57,396.9,57s343,153.6,343,343-153.6,343-343,343Z"/>
    <path id="path-2" d="M396.9,743c189.5,0,343-153.6,343-343S586.4,57,396.9,57,53.9,210.5,53.9,400s153.6,343,343,343Z"/>
  </defs>
  <!-- Generator: Adobe Illustrator 28.7.5, SVG Export Plug-In . SVG Version: 1.2.0 Build 176)  -->
  <g>
    <g id="Layer_1">
      <g id="CREST" class="cls-6">
        <path class="cls-3" d="M312.7,414.1s-1.7-12.9,29.3-33.2c31-20.4,28.7-73.1,28.7-73.1,0,0-3.7,12.3-10.6,19.8,0,0,6.7-15.2,4.9-23.2,0,0-17,6-37.3,4.3-20.4-1.7-27.2,6.3-22.9,13.8,0,0-14-14,3.2-20.9,17.2-6.9,42.4-17.2,41.9-42.7,0,0-6.9,29.5-45,37.6,0,0,25.5-14.9,26.1-41.9.6-26.9,18.9-35.8,18.9-35.8,0,0-16.6,6-21.2,19.2,0,0,4.3-13.5,10.3-17.5,0,0-13.8,3.7-17.2,18.3,0,0,1.7-21.5,22.1-29.8,20.4-8.3,24.7-17.5,24.7-17.5,0,0-23.5-.6-39,14.9,0,0,21.5-35.8,61.1-37.3,0,0-10-2.1-16.7,0,0,0,15.5-6.3,27.8-3.5-.2-1.9-.3-3.9-.3-6.1,0-2.7.1-5.3.3-7.6,2.7,1.4,5.7,3.1,8.8,5.2,3.6,2.5,6.6,5,9.1,7.3-1.6-2.9-3.3-6.9-4.4-11.9-.6-3-.9-5.6-.9-7.9,3,1.5,6.8,3.8,10.6,7.2,4.8,4.2,8,8.4,10,11.7,0,0,14.1.6,24.6,19.4,10.5,18.8,33.7,19.4,32.5,33.1-1.2,13.7-6.9,15.7-14.1,15.9-4.8.1-8.9-11-26.9-11.6-4.9-.2-11.8-1.1-20.3-.3,0,0,15.4,41.8,28.3,44.2,12.9,2.4,17.5,16.7,17.5,16.7,0,0,15.9-16.1,26.9-16.1s12.9,7.5,21.5,13.2c8.6,5.6,23.7,11.8,21,23.1,0,0,13.6,23.2,11.1,26.6-2.5,3.3-19.4-4-19.4-4l.7,12.9s3.4,6.3-1.1,10.7l-1,8.2,2.3,2.1v18.2s-20.1-9.4-20.9-15.3c-.8-5.9,8.2-3.3,8.2-10.9s-6.5-6.1-5.2-13c1.3-6.9,4-7.5,4-7.5,0,0,.8-19.5-3.4-23.3l-43.1,23.9s-10.9,32.9-27.9,45.5c0,0-28.5,34.4-46.9,48,0,0-9.8,5-7.1,21.6,0,0,16.5,18,14.7,27-1.7,9-23.2,31.2-26.8,43.8-3.6,12.6-7.8,60.3,33.5,84.8,0,0,20.9,4.2,20.5,14,0,0-5.5,3.8-24.7,2.5v1.9c0,1.2-1.1,2-2.2,1.8-6.1-1.5-22.8-5.8-22.8-10s6.9-7.7,2.1-11.1-12.1-2.1-10.9-11.5c0,0-23.2-32.1-34.5-44-2.6-2.7-3.3-6.7-1.7-10.2,3.2-7,8.7-18.1,14-22.9,0,0-67.9-38-50.6-72.7,0,0-7.1-8.1-8.6,4.2-1.5,12.3,6.3,57.3-2.5,72,0,0,3-19.8,0-29.3,0,0-8.5,80.5-68.8,89,0,0,34-18.8,33.8-48,0,0-12,24.5-32.3,32.5-20.3,8-27.3,11.8-31.5,22,0,0,6-38.3,44-55.8,0,0-27.3,4-40.8,27.8,0,0,16.8-30,37.5-43.5,0,0-48,38-66.8,32.5,0,0,43.5-15,45-51,1.5-36,36.8-53.8,36.8-53.8,0,0-16.3,3-24.3,11,0,0,10.3-18.3,50.5-25.5,40.3-7.3,34-8.1,34-8.1Z"/>
        <text>
          <textPath startOffset="9764.6%" xlink:href="#path"><tspan class="cls-2"><tspan x="0" y="0">BRANTHAM GARAGE SALE</tspan></tspan>
          </textPath></text>
        <text>
          <textPath startOffset="5435.4%" xlink:href="#path-2"><tspan class="cls-2"><tspan x="0" y="0">FOUNDATION</tspan></tspan>
          </textPath></text>
        <g>
          <g class="cls-6">
            <path class="cls-4" d="M636,645.9c73.2-67.7,113-167.4,102.5-270.5"/>
            <g>
              <path class="cls-1" d="M655,594.2l-16.9-18.4-8.7,23.4c-1.9,5.2-.7,11,3,15l16.7,17.9,8.7-22.9c2-5.2.8-11-2.9-15.1Z"/>
              <path class="cls-1" d="M685.3,646.5l21.5-12.7-21.1-13.3c-4.7-2.9-10.6-3-15.3-.2l-21,12.7,20.6,13.3c4.6,3,10.6,3.1,15.3.3Z"/>
            </g>
            <g>
              <path class="cls-1" d="M676.5,566.8l-17.7-17.7-7.7,23.8c-1.7,5.3-.3,11,3.7,14.9l17.5,17.2,7.7-23.3c1.7-5.2.4-11-3.5-14.9Z"/>
              <path class="cls-1" d="M709,617.8l21-13.6-21.7-12.4c-4.8-2.7-10.7-2.6-15.3.5l-20.5,13.5,21.2,12.4c4.8,2.8,10.7,2.7,15.3-.4Z"/>
            </g>
            <g>
              <path class="cls-1" d="M695.5,536.8l-17.8-17.5-7.5,23.9c-1.7,5.3-.2,11,3.8,14.9l17.6,17.1,7.5-23.4c1.7-5.3.3-11-3.7-14.9Z"/>
              <path class="cls-1" d="M728.4,587.5l20.9-13.8-21.8-12.3c-4.8-2.7-10.7-2.5-15.3.6l-20.4,13.7,21.3,12.2c4.8,2.7,10.7,2.6,15.3-.5Z"/>
            </g>
            <g>
              <path class="cls-1" d="M708.2,502.9l-20.2-14.8-3.9,24.7c-.9,5.5,1.4,10.9,5.9,14.2l19.9,14.3,4.1-24.2c.9-5.4-1.3-10.9-5.8-14.2Z"/>
              <path class="cls-1" d="M748.1,548.3l18.6-16.7-23.3-9c-5.2-2-11-.9-15.1,2.8l-18.2,16.5,22.8,9c5.1,2,11,1,15.1-2.7Z"/>
            </g>
            <g>
              <path class="cls-1" d="M715.7,468l-22.6-10.8.7,25c.2,5.5,3.4,10.5,8.4,12.8l22.2,10.4-.5-24.5c-.1-5.5-3.3-10.5-8.3-12.9Z"/>
              <path class="cls-1" d="M763.3,505.2l15.2-19.8-24.6-4.5c-5.4-1-11,1.2-14.3,5.6l-14.8,19.6,24.1,4.6c5.4,1,11-1.1,14.3-5.5Z"/>
            </g>
            <g>
              <path class="cls-1" d="M723.6,431.1l-22.6-10.6.9,25c.2,5.5,3.5,10.5,8.5,12.8l22.3,10.3-.6-24.5c-.1-5.5-3.4-10.5-8.4-12.8Z"/>
              <path class="cls-1" d="M771.5,468l15.1-19.9-24.6-4.3c-5.4-1-11,1.2-14.3,5.7l-14.7,19.7,24.1,4.5c5.4,1,11-1.1,14.3-5.5Z"/>
            </g>
            <g>
              <path class="cls-1" d="M724.6,391.3l-23.5-8.5,3.2,24.8c.7,5.5,4.4,10.1,9.6,11.9l23.1,8.2-2.9-24.4c-.7-5.5-4.3-10.1-9.5-12Z"/>
              <path class="cls-1" d="M775.7,423.7l13.2-21.2-24.9-2c-5.5-.5-10.8,2.2-13.7,7l-12.8,21,24.4,2.2c5.5.5,10.8-2.2,13.7-6.8Z"/>
            </g>
            <path class="cls-1" d="M756.6,371.3l-10.6-22.6-15.3,19.8c-3.4,4.4-4,10.3-1.6,15.3l10.6,22.1,15.2-19.3c3.4-4.3,4.1-10.2,1.7-15.2Z"/>
          </g>
          <g>
            <path class="cls-5" d="M638.6,647.4c68.3-63.2,105.5-156.3,95.7-252.4"/>
            <g>
              <path class="cls-3" d="M649.2,605.3l-16.6-16.4-7,22.2c-1.6,4.9-.2,10.3,3.5,13.9l16.4,16,7.1-21.8c1.6-4.9.3-10.3-3.4-13.9Z"/>
              <path class="cls-3" d="M679.8,652.7l19.5-12.8-20.3-11.5c-4.5-2.5-10-2.3-14.3.5l-19,12.7,19.8,11.5c4.5,2.6,10,2.4,14.3-.4Z"/>
            </g>
            <g>
              <path class="cls-3" d="M672.6,575.6l-17.9-15-5.2,22.7c-1.1,5,.6,10.3,4.6,13.6l17.7,14.6,5.3-22.3c1.2-5-.6-10.3-4.5-13.6Z"/>
              <path class="cls-3" d="M707,620.3l18.4-14.4-21.2-9.8c-4.7-2.2-10.2-1.5-14.2,1.7l-17.9,14.3,20.7,9.8c4.7,2.2,10.2,1.6,14.2-1.6Z"/>
            </g>
            <g>
              <path class="cls-3" d="M693,544.9l-18.5-14.2-4.2,22.9c-.9,5.1,1.1,10.2,5.2,13.3l18.3,13.8,4.3-22.5c1-5.1-1-10.2-5.1-13.4Z"/>
              <path class="cls-3" d="M729.3,588.1l17.7-15.2-21.6-8.9c-4.8-2-10.2-1.1-14.1,2.3l-17.3,15,21.1,8.9c4.8,2,10.2,1.1,14.2-2.2Z"/>
            </g>
            <g>
              <path class="cls-3" d="M706.7,510.9l-19.5-12.8-2.4,23.2c-.5,5.1,1.9,10.1,6.2,12.9l19.3,12.4,2.6-22.8c.6-5.1-1.8-10.1-6.1-13Z"/>
              <path class="cls-3" d="M745.4,551.2l16.5-16.5-22.2-7.2c-4.9-1.6-10.3-.3-13.9,3.4l-16.1,16.3,21.7,7.2c4.9,1.6,10.3.4,13.9-3.3Z"/>
            </g>
            <g>
              <path class="cls-3" d="M716.9,475.7l-20.5-11-.4,23.3c0,5.2,2.7,9.9,7.3,12.3l20.3,10.7.6-22.9c.1-5.2-2.6-10-7.2-12.4Z"/>
              <path class="cls-3" d="M759.7,512.5l15.1-17.8-22.7-5.3c-5-1.2-10.3.6-13.6,4.6l-14.6,17.6,22.3,5.4c5,1.2,10.3-.5,13.6-4.5Z"/>
            </g>
            <g>
              <path class="cls-3" d="M721.1,437.2l-21.8-8.4,2.4,23.2c.5,5.1,3.9,9.5,8.8,11.3l21.4,8.1-2.2-22.8c-.5-5.1-3.8-9.5-8.7-11.4Z"/>
              <path class="cls-3" d="M768.1,468.4l12.7-19.5-23.2-2.4c-5.1-.5-10.1,1.9-12.9,6.2l-12.4,19.3,22.8,2.6c5.1.6,10.1-1.8,13-6.1Z"/>
            </g>
            <g>
              <path class="cls-3" d="M719.3,396.8l-22.7-5.5,5.4,22.7c1.2,5,5.1,8.9,10.1,10.1l22.3,5.2-5.1-22.3c-1.2-5-5.1-9-10.1-10.2Z"/>
              <path class="cls-3" d="M770,421.6l10.1-21-23.3.6c-5.2.1-9.8,3.2-12,7.8l-9.8,20.7,22.9-.4c5.2,0,9.8-3.1,12.1-7.7Z"/>
            </g>
            <path class="cls-3" d="M746.3,369.2l-12.7-19.5-11.6,20.3c-2.6,4.5-2.4,10,.5,14.3l12.7,19.1,11.5-19.8c2.6-4.5,2.5-10-.4-14.3Z"/>
          </g>
          <g>
            <path class="cls-5" d="M153.2,647.4c-68.3-63.2-105.5-156.3-95.7-252.4"/>
            <g>
              <path class="cls-3" d="M142.6,605.3l16.6-16.4,7,22.2c1.6,4.9.2,10.3-3.5,13.9l-16.4,16-7.1-21.8c-1.6-4.9-.3-10.3,3.4-13.9Z"/>
              <path class="cls-3" d="M112.1,652.7l-19.5-12.8,20.3-11.5c4.5-2.5,10-2.3,14.3.5l19,12.7-19.8,11.5c-4.5,2.6-10,2.4-14.3-.4Z"/>
            </g>
            <g>
              <path class="cls-3" d="M119.2,575.6l17.9-15,5.2,22.7c1.1,5-.6,10.3-4.6,13.6l-17.7,14.6-5.3-22.3c-1.2-5,.6-10.3,4.5-13.6Z"/>
              <path class="cls-3" d="M84.8,620.3l-18.4-14.4,21.2-9.8c4.7-2.2,10.2-1.5,14.2,1.7l17.9,14.3-20.7,9.8c-4.7,2.2-10.2,1.6-14.2-1.6Z"/>
            </g>
            <g>
              <path class="cls-3" d="M98.9,544.9l18.5-14.2,4.2,22.9c.9,5.1-1.1,10.2-5.2,13.3l-18.3,13.8-4.3-22.5c-1-5.1,1-10.2,5.1-13.4Z"/>
              <path class="cls-3" d="M62.6,588.1l-17.7-15.2,21.6-8.9c4.8-2,10.2-1.1,14.1,2.3l17.3,15-21.1,8.9c-4.8,2-10.2,1.1-14.2-2.2Z"/>
            </g>
            <g>
              <path class="cls-3" d="M85.1,510.9l19.5-12.8,2.4,23.2c.5,5.1-1.9,10.1-6.2,12.9l-19.3,12.4-2.6-22.8c-.6-5.1,1.8-10.1,6.1-13Z"/>
              <path class="cls-3" d="M46.5,551.2l-16.5-16.5,22.2-7.2c4.9-1.6,10.3-.3,13.9,3.4l16.1,16.3-21.7,7.2c-4.9,1.6-10.3.4-13.9-3.3Z"/>
            </g>
            <g>
              <path class="cls-3" d="M75,475.7l20.5-11,.4,23.3c0,5.2-2.7,9.9-7.3,12.3l-20.3,10.7-.6-22.9c-.1-5.2,2.6-10,7.2-12.4Z"/>
              <path class="cls-3" d="M32.2,512.5l-15.1-17.8,22.7-5.3c5-1.2,10.3.6,13.6,4.6l14.6,17.6-22.3,5.4c-5,1.2-10.3-.5-13.6-4.5Z"/>
            </g>
            <g>
              <path class="cls-3" d="M70.8,437.2l21.8-8.4-2.4,23.2c-.5,5.1-3.9,9.5-8.8,11.3l-21.4,8.1,2.2-22.8c.5-5.1,3.8-9.5,8.7-11.4Z"/>
              <path class="cls-3" d="M23.8,468.4l-12.7-19.5,23.2-2.4c5.1-.5,10.1,1.9,12.9,6.2l12.4,19.3-22.8,2.6c-5.1.6-10.1-1.8-13-6.1Z"/>
            </g>
            <g>
              <path class="cls-3" d="M72.6,396.8l22.7-5.5-5.4,22.7c-1.2,5-5.1,8.9-10.1,10.1l-22.3,5.2,5.1-22.3c1.2-5,5.1-9,10.1-10.2Z"/>
              <path class="cls-3" d="M21.9,421.6l-10.1-21,23.3.6c5.2.1,9.8,3.2,12,7.8l9.8,20.7-22.9-.4c-5.2,0-9.8-3.1-12.1-7.7Z"/>
            </g>
            <path class="cls-3" d="M45.6,369.2l12.7-19.5,11.6,20.3c2.6,4.5,2.4,10-.5,14.3l-12.7,19.1-11.5-19.8c-2.6-4.5-2.5-10,.4-14.3Z"/>
          </g>
        </g>
      </g>
      <g id="CREST-2" data-name="CREST">
        <path class="cls-3" d="M312.7,414.1s-1.7-12.9,29.3-33.2c31-20.4,28.7-73.1,28.7-73.1,0,0-3.7,12.3-10.6,19.8,0,0,6.7-15.2,4.9-23.2,0,0-17,6-37.3,4.3-20.4-1.7-27.2,6.3-22.9,13.8,0,0-14-14,3.2-20.9,17.2-6.9,42.4-17.2,41.9-42.7,0,0-6.9,29.5-45,37.6,0,0,25.5-14.9,26.1-41.9.6-26.9,18.9-35.8,18.9-35.8,0,0-16.6,6-21.2,19.2,0,0,4.3-13.5,10.3-17.5,0,0-13.8,3.7-17.2,18.3,0,0,1.7-21.5,22.1-29.8,20.4-8.3,24.7-17.5,24.7-17.5,0,0-23.5-.6-39,14.9,0,0,21.5-35.8,61.1-37.3,0,0-10-2.1-16.7,0,0,0,15.5-6.3,27.8-3.5-.2-1.9-.3-3.9-.3-6.1,0-2.7.1-5.3.3-7.6,2.7,1.4,5.7,3.1,8.8,5.2,3.6,2.5,6.6,5,9.1,7.3-1.6-2.9-3.3-6.9-4.4-11.9-.6-3-.9-5.6-.9-7.9,3,1.5,6.8,3.8,10.6,7.2,4.8,4.2,8,8.4,10,11.7,0,0,14.1.6,24.6,19.4,10.5,18.8,33.7,19.4,32.5,33.1-1.2,13.7-6.9,15.7-14.1,15.9-4.8.1-8.9-11-26.9-11.6-4.9-.2-11.8-1.1-20.3-.3,0,0,15.4,41.8,28.3,44.2,12.9,2.4,17.5,16.7,17.5,16.7,0,0,15.9-16.1,26.9-16.1s12.9,7.5,21.5,13.2c8.6,5.6,23.7,11.8,21,23.1,0,0,13.6,23.2,11.1,26.6-2.5,3.3-19.4-4-19.4-4l.7,12.9s3.4,6.3-1.1,10.7l-1,8.2,2.3,2.1v18.2s-20.1-9.4-20.9-15.3c-.8-5.9,8.2-3.3,8.2-10.9s-6.5-6.1-5.2-13c1.3-6.9,4-7.5,4-7.5,0,0,.8-19.5-3.4-23.3l-43.1,23.9s-10.9,32.9-27.9,45.5c0,0-28.5,34.4-46.9,48,0,0-9.8,5-7.1,21.6,0,0,16.5,18,14.7,27-1.7,9-23.2,31.2-26.8,43.8-3.6,12.6-7.8,60.3,33.5,84.8,0,0,20.9,4.2,20.5,14,0,0-5.5,3.8-24.7,2.5v1.9c0,1.2-1.1,2-2.2,1.8-6.1-1.5-22.8-5.8-22.8-10s6.9-7.7,2.1-11.1-12.1-2.1-10.9-11.5c0,0-23.2-32.1-34.5-44-2.6-2.7-3.3-6.7-1.7-10.2,3.2-7,8.7-18.1,14-22.9,0,0-67.9-38-50.6-72.7,0,0-7.1-8.1-8.6,4.2-1.5,12.3,6.3,57.3-2.5,72,0,0,3-19.8,0-29.3,0,0-8.5,80.5-68.8,89,0,0,34-18.8,33.8-48,0,0-12,24.5-32.3,32.5-20.3,8-27.3,11.8-31.5,22,0,0,6-38.3,44-55.8,0,0-27.3,4-40.8,27.8,0,0,16.8-30,37.5-43.5,0,0-48,38-66.8,32.5,0,0,43.5-15,45-51,1.5-36,36.8-53.8,36.8-53.8,0,0-16.3,3-24.3,11,0,0,10.3-18.3,50.5-25.5,40.3-7.3,34-8.1,34-8.1Z"/>
        <g>
          <path class="cls-3" d="M35.1,312.7l4.2-14.4c3.9-13.3,11.2-17.3,18.9-15.1,7.2,2.1,9.5,7.7,8.9,13.3,2.4-5.9,8.2-11.7,18.1-8.8,9.4,2.7,13.8,10.7,9.4,25.7l-4.5,15.3-55.1-16ZM39.6,306.2l21.8,6.3,2.1-7.2c2.4-8.1-.4-12.9-7.3-14.9-6.8-2-12.1.4-14.7,9.3l-1.9,6.5ZM63.9,313.3l25.9,7.5,2.2-7.6c2.7-9.4-1.1-15.4-9.2-17.8-8.5-2.5-14.1,1.3-16.8,10.6l-2.1,7.2Z"/>
          <path class="cls-3" d="M51.5,261.5l6.1-13.4c5.5-12,13.3-17.2,23.4-12.7,7.7,3.5,9.9,10.2,7.8,18.9l31.3-5.1-3.6,8-30.4,4.6-2.7,6,23.5,10.7-3.1,6.9-52.2-23.8ZM57,255.7l23.9,10.9,2.6-5.7c4-8.7,2.1-14.7-5.6-18.2-8-3.6-14.3-1.4-18.2,7.3l-2.6,5.7Z"/>
          <path class="cls-3" d="M122.1,213.7l-12.7,19.9,11.4,14.6-1.8,2.8-37.3-48.2,3.5-5.5,59,14.1-4.2,6.6-17.9-4.3ZM107.5,231.1l11.6-18.2-31.7-7.7,20.1,25.9Z"/>
          <path class="cls-3" d="M107.9,165.8l48.9,7.5c2.2.4,4.7,1.1,7.1,1.9l-36.6-31.8,2.1-2.4,43.3,37.6-3.8,4.3-46.6-6.9c-4-.6-7.9-1.5-11.5-2.8l37.9,33-2.1,2.4-43.3-37.6,4.5-5.2Z"/>
          <path class="cls-3" d="M153.2,122.8l-12.1,10.4-1.7-2,29.4-25.4,1.7,2-11.7,10.1,35.8,41.4-5.7,4.9-35.8-41.4Z"/>
          <path class="cls-3" d="M210.8,145.8l-30.8-48.3,6.4-4.1,14.1,22.2,21.8-13.9-14.1-22.2,6.4-4.1,30.8,48.3-6.4,4.1-15.2-23.9-21.8,13.9,15.2,23.9-6.4,4.1Z"/>
          <path class="cls-3" d="M271.6,92.5l-21.6,9.5,1.4,18.5-3,1.3-4.3-60.8,5.9-2.6,41.3,44.4-7.2,3.2-12.5-13.5ZM249.8,98.9l19.7-8.7-22.2-24,2.5,32.7Z"/>
          <path class="cls-3" d="M328.1,42.3l-4.7,52-6.4,1.5-28.8-44.5,8.6,49.4-3,.7-10.3-56.5,7.9-1.9,29.5,46,4.8-54.3,7.8-1.9,17.5,54.8-7.3,1.8-15.6-47.1Z"/>
          <path class="cls-3" d="M375.6,56.6c.3-19.9,13-29.2,28.6-29,11.1.2,15.2,4.5,18.5,8.5l-1.4,1.2c-3.5-3.9-8.4-6.5-16.4-6.7-11.3-.2-20.9,8-21.2,26.4-.3,16.3,7.1,26.4,20,26.6,3.8,0,7.5-.5,10.9-1.5l.3-19.2-12.7-.2v-2.6s20.3.3,20.3.3l-.4,22c-4.2,2.3-11.3,4.1-18.7,4-18.3-.3-28.1-11.9-27.8-29.9Z"/>
          <path class="cls-3" d="M458.4,73.7l-23.3-3.7-8.9,16.3-3.2-.5,29.3-53.4,6.4,1,10.7,59.7-7.8-1.2-3.2-18.2ZM436.6,67.3l21.3,3.3-5.6-32.1-15.6,28.8Z"/>
          <path class="cls-3" d="M489.8,39.6l14.1,4.3c12.6,3.9,18.8,11,15.6,21.6-2.5,8.1-8.8,11.2-17.7,10.2l9.1,30.4-8.4-2.6-8.5-29.6-6.3-1.9-7.6,24.7-7.2-2.2,16.8-54.8ZM496.2,44.3l-7.7,25.1,6,1.8c9.2,2.8,14.9.2,17.3-7.9,2.6-8.4-.5-14.4-9.6-17.2l-6-1.8Z"/>
          <path class="cls-3" d="M546.3,103.5l-21.4-10-13,13.2-3-1.4,43-43.2,5.9,2.7-6.4,60.3-7.1-3.3,2-18.3ZM527.1,91.2l19.5,9.1,3.5-32.4-23,23.3Z"/>
          <path class="cls-3" d="M566.1,100.5c11-16.6,26.7-17.6,39.7-9,9.2,6.1,10.4,12,11,17.1l-1.8.3c-.8-5.2-3.6-10-10.3-14.5-9.4-6.2-21.9-4.5-32,10.8-9,13.6-8.2,26.1,2.5,33.2,3.1,2.1,6.6,3.7,10,4.6l10.6-16-10.6-7,1.4-2.2,16.9,11.2-12.2,18.4c-4.8-.3-11.7-2.6-17.9-6.8-15.3-10.1-17.2-25.2-7.3-40.2Z"/>
          <path class="cls-3" d="M634.2,113.5l24.3,21.8-1.8,2-18.7-16.8-16,17.8,15,13.5-1.8,2-15-13.5-17,19,19.3,17.4-1.8,2-24.9-22.4,38.3-42.7Z"/>
          <path class="cls-3" d="M676.1,173c-10.7,8.3,8.1,27.3-8,39.7-7.8,6.1-17.1,3.2-22.7-4-5.4-6.9-5.2-14.5-4.3-19.7l1.9.2c-.7,4.6,0,11.5,4.1,16.7,4.4,5.7,10.7,6.8,15.7,3,12.7-9.8-5.7-29.3,8.1-40,7.1-5.5,15.2-3.9,21.6,4.4,4.2,5.4,4.2,10.8,3.4,15.6l-1.9-.3c.6-4.8-.5-9.2-3.6-13.2-3.9-5.1-9.5-6.2-14.4-2.4Z"/>
          <path class="cls-3" d="M688.1,240.4l-12-20.3-18.2,3.5-1.7-2.8,59.9-11.3,3.3,5.6-39.4,46.1-4-6.8,12-14ZM679.2,219.5l10.9,18.6,21.3-24.8-32.2,6.2Z"/>
          <path class="cls-3" d="M734.1,242.8l2.9,6.9-50.4,21.4,9.5,22.5-2.4,1-12.5-29.4,52.8-22.4Z"/>
          <path class="cls-3" d="M750.7,284.6l8.9,31.5-2.5.7-6.8-24.2-23,6.5,5.5,19.4-2.6.7-5.5-19.4-24.5,6.9,7.1,25-2.5.7-9.1-32.2,55.2-15.6Z"/>
        </g>
        <g>
          <path class="cls-3" d="M196.3,642.4l26,19.8-1.6,2.1-20-15.2-15.6,20.6,14.7,11.1-1.6,2.2-14.7-11.1-15.8,20.9-6-4.6,34.7-45.7Z"/>
          <path class="cls-3" d="M217.2,726.4c-13.9-7.7-16.8-22.5-8.1-38.2,8.6-15.6,22.7-21.1,36.6-13.4s16.8,22.6,8.2,38.2c-8.6,15.6-22.7,21-36.7,13.4ZM218.5,724.1c10.6,5.9,20.4-.6,28.3-15,7.7-13.9,8.2-26.1-2.4-32-10.5-5.8-20.5,1-28.2,15-8.1,14.6-8.3,26.2,2.3,32Z"/>
          <path class="cls-3" d="M308.5,702.2l3.3,1.2-12.2,34.9c-4.6,13.1-13.9,17.5-25.9,13.3-12.1-4.2-16.5-13.4-11.9-26.6l12.2-34.9,6.8,2.4-12.1,34.4c-3.4,9.6-1.5,17.8,8.4,21.2s16-2,19.3-11.5l12.1-34.4Z"/>
          <path class="cls-3" d="M328.5,707.2l18.7,45.9c.8,2.1,1.4,4.6,2,7.1l8.5-47.7,3.1.6-10.1,56.4-5.6-1-18-43.6c-1.6-3.8-2.8-7.6-3.5-11.3l-8.8,49.4-3.1-.6,10.1-56.5,6.8,1.2Z"/>
          <path class="cls-3" d="M371.4,714l12.2.2c21.1.3,31.6,12.9,31.3,29.3-.3,16.8-11.5,28.3-32.2,28l-12.2-.2.9-57.3ZM378.9,716.7l-.8,52.1h5c16.7.4,23.4-10.1,23.6-25.5.2-14.7-6.5-26.2-22.8-26.5h-5Z"/>
          <path class="cls-3" d="M452,750.1l-23.4,3-4,18.1-3.3.4,13.2-59.5,6.4-.8,27,54.4-7.8,1-8.2-16.5ZM429.3,750.1l21.4-2.7-14.4-29.3-7,32Z"/>
          <path class="cls-3" d="M471.1,708.3l-15.5,3.9-.6-2.5,37.7-9.5.6,2.5-14.9,3.8,13.3,53.1-7.3,1.8-13.3-53.1Z"/>
          <path class="cls-3" d="M499.2,697.4l7.1-2.5,19.3,54-7.1,2.5-19.3-54Z"/>
          <path class="cls-3" d="M563.5,733.3c-14.2,7.1-28,1.1-36.1-14.9-8-16-4.5-30.6,9.7-37.7s28.1-1.1,36.1,14.9c8,16,4.5,30.7-9.8,37.8ZM562.3,730.9c10.8-5.4,11-17.2,3.7-31.8-7.1-14.2-16.9-21.6-27.7-16.2-10.8,5.4-10.8,17.5-3.6,31.7,7.5,14.9,16.9,21.7,27.7,16.3Z"/>
          <path class="cls-3" d="M571.9,661.6l46.1,18.2c2.1.9,4.3,2.1,6.5,3.5l-28.6-39.1,2.6-1.9,33.8,46.3-4.6,3.4-43.9-17.1c-3.8-1.5-7.4-3.2-10.6-5.3l29.6,40.5-2.6,1.9-33.8-46.3,5.6-4.1Z"/>
        </g>
        <g>
          <g class="cls-6">
            <path class="cls-4" d="M636,645.9c73.2-67.7,113-167.4,102.5-270.5"/>
            <g>
              <path class="cls-1" d="M655,594.2l-16.9-18.4-8.7,23.4c-1.9,5.2-.7,11,3,15l16.7,17.9,8.7-22.9c2-5.2.8-11-2.9-15.1Z"/>
              <path class="cls-1" d="M685.3,646.5l21.5-12.7-21.1-13.3c-4.7-2.9-10.6-3-15.3-.2l-21,12.7,20.6,13.3c4.6,3,10.6,3.1,15.3.3Z"/>
            </g>
            <g>
              <path class="cls-1" d="M676.5,566.8l-17.7-17.7-7.7,23.8c-1.7,5.3-.3,11,3.7,14.9l17.5,17.2,7.7-23.3c1.7-5.2.4-11-3.5-14.9Z"/>
              <path class="cls-1" d="M709,617.8l21-13.6-21.7-12.4c-4.8-2.7-10.7-2.6-15.3.5l-20.5,13.5,21.2,12.4c4.8,2.8,10.7,2.7,15.3-.4Z"/>
            </g>
            <g>
              <path class="cls-1" d="M695.5,536.8l-17.8-17.5-7.5,23.9c-1.7,5.3-.2,11,3.8,14.9l17.6,17.1,7.5-23.4c1.7-5.3.3-11-3.7-14.9Z"/>
              <path class="cls-1" d="M728.4,587.5l20.9-13.8-21.8-12.3c-4.8-2.7-10.7-2.5-15.3.6l-20.4,13.7,21.3,12.2c4.8,2.7,10.7,2.6,15.3-.5Z"/>
            </g>
            <g>
              <path class="cls-1" d="M708.2,502.9l-20.2-14.8-3.9,24.7c-.9,5.5,1.4,10.9,5.9,14.2l19.9,14.3,4.1-24.2c.9-5.4-1.3-10.9-5.8-14.2Z"/>
              <path class="cls-1" d="M748.1,548.3l18.6-16.7-23.3-9c-5.2-2-11-.9-15.1,2.8l-18.2,16.5,22.8,9c5.1,2,11,1,15.1-2.7Z"/>
            </g>
            <g>
              <path class="cls-1" d="M715.7,468l-22.6-10.8.7,25c.2,5.5,3.4,10.5,8.4,12.8l22.2,10.4-.5-24.5c-.1-5.5-3.3-10.5-8.3-12.9Z"/>
              <path class="cls-1" d="M763.3,505.2l15.2-19.8-24.6-4.5c-5.4-1-11,1.2-14.3,5.6l-14.8,19.6,24.1,4.6c5.4,1,11-1.1,14.3-5.5Z"/>
            </g>
            <g>
              <path class="cls-1" d="M723.6,431.1l-22.6-10.6.9,25c.2,5.5,3.5,10.5,8.5,12.8l22.3,10.3-.6-24.5c-.1-5.5-3.4-10.5-8.4-12.8Z"/>
              <path class="cls-1" d="M771.5,468l15.1-19.9-24.6-4.3c-5.4-1-11,1.2-14.3,5.7l-14.7,19.7,24.1,4.5c5.4,1,11-1.1,14.3-5.5Z"/>
            </g>
            <g>
              <path class="cls-1" d="M724.6,391.3l-23.5-8.5,3.2,24.8c.7,5.5,4.4,10.1,9.6,11.9l23.1,8.2-2.9-24.4c-.7-5.5-4.3-10.1-9.5-12Z"/>
              <path class="cls-1" d="M775.7,423.7l13.2-21.2-24.9-2c-5.5-.5-10.8,2.2-13.7,7l-12.8,21,24.4,2.2c5.5.5,10.8-2.2,13.7-6.8Z"/>
            </g>
            <path class="cls-1" d="M756.6,371.3l-10.6-22.6-15.3,19.8c-3.4,4.4-4,10.3-1.6,15.3l10.6,22.1,15.2-19.3c3.4-4.3,4.1-10.2,1.7-15.2Z"/>
          </g>
          <g>
            <path class="cls-5" d="M638.6,647.4c68.3-63.2,105.5-156.3,95.7-252.4"/>
            <g>
              <path class="cls-3" d="M649.2,605.3l-16.6-16.4-7,22.2c-1.6,4.9-.2,10.3,3.5,13.9l16.4,16,7.1-21.8c1.6-4.9.3-10.3-3.4-13.9Z"/>
              <path class="cls-3" d="M679.8,652.7l19.5-12.8-20.3-11.5c-4.5-2.5-10-2.3-14.3.5l-19,12.7,19.8,11.5c4.5,2.6,10,2.4,14.3-.4Z"/>
            </g>
            <g>
              <path class="cls-3" d="M672.6,575.6l-17.9-15-5.2,22.7c-1.1,5,.6,10.3,4.6,13.6l17.7,14.6,5.3-22.3c1.2-5-.6-10.3-4.5-13.6Z"/>
              <path class="cls-3" d="M707,620.3l18.4-14.4-21.2-9.8c-4.7-2.2-10.2-1.5-14.2,1.7l-17.9,14.3,20.7,9.8c4.7,2.2,10.2,1.6,14.2-1.6Z"/>
            </g>
            <g>
              <path class="cls-3" d="M693,544.9l-18.5-14.2-4.2,22.9c-.9,5.1,1.1,10.2,5.2,13.3l18.3,13.8,4.3-22.5c1-5.1-1-10.2-5.1-13.4Z"/>
              <path class="cls-3" d="M729.3,588.1l17.7-15.2-21.6-8.9c-4.8-2-10.2-1.1-14.1,2.3l-17.3,15,21.1,8.9c4.8,2,10.2,1.1,14.2-2.2Z"/>
            </g>
            <g>
              <path class="cls-3" d="M706.7,510.9l-19.5-12.8-2.4,23.2c-.5,5.1,1.9,10.1,6.2,12.9l19.3,12.4,2.6-22.8c.6-5.1-1.8-10.1-6.1-13Z"/>
              <path class="cls-3" d="M745.4,551.2l16.5-16.5-22.2-7.2c-4.9-1.6-10.3-.3-13.9,3.4l-16.1,16.3,21.7,7.2c4.9,1.6,10.3.4,13.9-3.3Z"/>
            </g>
            <g>
              <path class="cls-3" d="M716.9,475.7l-20.5-11-.4,23.3c0,5.2,2.7,9.9,7.3,12.3l20.3,10.7.6-22.9c.1-5.2-2.6-10-7.2-12.4Z"/>
              <path class="cls-3" d="M759.7,512.5l15.1-17.8-22.7-5.3c-5-1.2-10.3.6-13.6,4.6l-14.6,17.6,22.3,5.4c5,1.2,10.3-.5,13.6-4.5Z"/>
            </g>
            <g>
              <path class="cls-3" d="M721.1,437.2l-21.8-8.4,2.4,23.2c.5,5.1,3.9,9.5,8.8,11.3l21.4,8.1-2.2-22.8c-.5-5.1-3.8-9.5-8.7-11.4Z"/>
              <path class="cls-3" d="M768.1,468.4l12.7-19.5-23.2-2.4c-5.1-.5-10.1,1.9-12.9,6.2l-12.4,19.3,22.8,2.6c5.1.6,10.1-1.8,13-6.1Z"/>
            </g>
            <g>
              <path class="cls-3" d="M719.3,396.8l-22.7-5.5,5.4,22.7c1.2,5,5.1,8.9,10.1,10.1l22.3,5.2-5.1-22.3c-1.2-5-5.1-9-10.1-10.2Z"/>
              <path class="cls-3" d="M770,421.6l10.1-21-23.3.6c-5.2.1-9.8,3.2-12,7.8l-9.8,20.7,22.9-.4c5.2,0,9.8-3.1,12.1-7.7Z"/>
            </g>
            <path class="cls-3" d="M746.3,369.2l-12.7-19.5-11.6,20.3c-2.6,4.5-2.4,10,.5,14.3l12.7,19.1,11.5-19.8c2.6-4.5,2.5-10-.4-14.3Z"/>
          </g>
          <g>
            <path class="cls-5" d="M153.2,647.4c-68.3-63.2-105.5-156.3-95.7-252.4"/>
            <g>
              <path class="cls-3" d="M142.6,605.3l16.6-16.4,7,22.2c1.6,4.9.2,10.3-3.5,13.9l-16.4,16-7.1-21.8c-1.6-4.9-.3-10.3,3.4-13.9Z"/>
              <path class="cls-3" d="M112.1,652.7l-19.5-12.8,20.3-11.5c4.5-2.5,10-2.3,14.3.5l19,12.7-19.8,11.5c-4.5,2.6-10,2.4-14.3-.4Z"/>
            </g>
            <g>
              <path class="cls-3" d="M119.2,575.6l17.9-15,5.2,22.7c1.1,5-.6,10.3-4.6,13.6l-17.7,14.6-5.3-22.3c-1.2-5,.6-10.3,4.5-13.6Z"/>
              <path class="cls-3" d="M84.8,620.3l-18.4-14.4,21.2-9.8c4.7-2.2,10.2-1.5,14.2,1.7l17.9,14.3-20.7,9.8c-4.7,2.2-10.2,1.6-14.2-1.6Z"/>
            </g>
            <g>
              <path class="cls-3" d="M98.9,544.9l18.5-14.2,4.2,22.9c.9,5.1-1.1,10.2-5.2,13.3l-18.3,13.8-4.3-22.5c-1-5.1,1-10.2,5.1-13.4Z"/>
              <path class="cls-3" d="M62.6,588.1l-17.7-15.2,21.6-8.9c4.8-2,10.2-1.1,14.1,2.3l17.3,15-21.1,8.9c-4.8,2-10.2,1.1-14.2-2.2Z"/>
            </g>
            <g>
              <path class="cls-3" d="M85.1,510.9l19.5-12.8,2.4,23.2c.5,5.1-1.9,10.1-6.2,12.9l-19.3,12.4-2.6-22.8c-.6-5.1,1.8-10.1,6.1-13Z"/>
              <path class="cls-3" d="M46.5,551.2l-16.5-16.5,22.2-7.2c4.9-1.6,10.3-.3,13.9,3.4l16.1,16.3-21.7,7.2c-4.9,1.6-10.3.4-13.9-3.3Z"/>
            </g>
            <g>
              <path class="cls-3" d="M75,475.7l20.5-11,.4,23.3c0,5.2-2.7,9.9-7.3,12.3l-20.3,10.7-.6-22.9c-.1-5.2,2.6-10,7.2-12.4Z"/>
              <path class="cls-3" d="M32.2,512.5l-15.1-17.8,22.7-5.3c5-1.2,10.3.6,13.6,4.6l14.6,17.6-22.3,5.4c-5,1.2-10.3-.5-13.6-4.5Z"/>
            </g>
            <g>
              <path class="cls-3" d="M70.8,437.2l21.8-8.4-2.4,23.2c-.5,5.1-3.9,9.5-8.8,11.3l-21.4,8.1,2.2-22.8c.5-5.1,3.8-9.5,8.7-11.4Z"/>
              <path class="cls-3" d="M23.8,468.4l-12.7-19.5,23.2-2.4c5.1-.5,10.1,1.9,12.9,6.2l12.4,19.3-22.8,2.6c-5.1.6-10.1-1.8-13-6.1Z"/>
            </g>
            <g>
              <path class="cls-3" d="M72.6,396.8l22.7-5.5-5.4,22.7c-1.2,5-5.1,8.9-10.1,10.1l-22.3,5.2,5.1-22.3c1.2-5,5.1-9,10.1-10.2Z"/>
              <path class="cls-3" d="M21.9,421.6l-10.1-21,23.3.6c5.2.1,9.8,3.2,12,7.8l9.8,20.7-22.9-.4c-5.2,0-9.8-3.1-12.1-7.7Z"/>
            </g>
            <path class="cls-3" d="M45.6,369.2l12.7-19.5,11.6,20.3c2.6,4.5,2.4,10-.5,14.3l-12.7,19.1-11.5-19.8c-2.6-4.5-2.5-10,.4-14.3Z"/>
          </g>
        </g>
      </g>
    </g>
  </g>
</svg>