<?xml version="1.0" encoding="UTF-8" standalone="no"?>
<!-- Uploaded to: SVG Repo, www.svgrepo.com, Generator: SVG Repo Mixer Tools -->

<svg
   width="733.33337"
   height="600"
   viewBox="0 0 22.000001 18"
   fill="none"
   version="1.1"
   id="svg1"
   xmlns="http://www.w3.org/2000/svg"
   xmlns:svg="http://www.w3.org/2000/svg">
  <defs
     id="defs1" />
  <path
     fill-rule="evenodd"
     clip-rule="evenodd"
     d="M 4.9572686e-8,2.0000002 C 4.9572686e-8,0.89543024 0.89543005,2.3841858e-7 2.0000001,2.3841858e-7 H 20 c 1.1046,0 2,0.89543000158142 2,1.99999996158142 v 6 C 22,9.1046002 21.1046,10 20,10 h -8 v 2.1707 c 1.1652,0.4118 2,1.5231 2,2.8293 0,1.6569 -1.3431,3 -3,3 -1.6568999,0 -2.9999999,-1.3431 -2.9999999,-3 0,-1.3062 0.83481,-2.4175 1.9999999,-2.8293 V 10 H 2.0000001 C 0.89543005,10 4.9572686e-8,9.1046002 4.9572686e-8,8.0000002 Z M 10,15 c 0,-0.5523 0.4477,-1 1,-1 0.5523,0 1,0.4477 1,1 0,0.5523 -0.4477,1 -1,1 -0.5523,0 -1,-0.4477 -1,-1 z M 2.0000001,2.0000002 v 6 H 20 v -6 z m 3,1 c -1.10457,0 -2,0.89543 -2,2 0,1.1046 0.89543,2 2,2 1.10457,0 2,-0.8954 2,-2 0,-1.10457 -0.89543,-2 -2,-2 z"
     fill="#000000"
     id="path1" />
</svg>
